<?xml version="1.0" encoding="iso-8859-1"?>
<!-- Generator: Adobe Illustrator 19.0.0, SVG Export Plug-In . SVG Version: 6.00 Build 0)  -->
<svg version="1.1" id="Layer_1" xmlns="http://www.w3.org/2000/svg" xmlns:xlink="http://www.w3.org/1999/xlink" x="0px" y="0px"
	 viewBox="0 0 512 512" style="enable-background:new 0 0 512 512;" xml:space="preserve">
<g>
	<g>
		<path d="M417.363,465.449h-0.177c16.382-62.974,24.993-134.668,24.993-209.452c0-74.782-8.612-146.477-24.993-209.452h0.177
			c12.853,0,23.272-10.42,23.272-23.272S430.216,0,417.363,0h-31.03H125.667h-31.03C81.784,0,71.364,10.42,71.364,23.272
			s10.42,23.272,23.272,23.272h0.177C78.431,109.52,69.82,181.215,69.82,255.997c0,74.784,8.612,146.478,24.993,209.452h-0.177
			c-12.853,0-23.272,10.42-23.272,23.272s10.42,23.272,23.272,23.272h30.864c0.059,0,0.119,0.006,0.178,0.006
			c0.05,0,0.098-0.006,0.147-0.006h130.008c0.014,0,0.028,0.002,0.04,0.002c0.037,0,0.076,0.005,0.113,0.005
			c0.003,0,0.009,0,0.012,0c0.005,0,0.008,0,0.012,0c0.037,0,0.076-0.005,0.113-0.005c0.014,0,0.028-0.002,0.04-0.002h130.008
			c0.048,0,0.098,0.006,0.147,0.006c0.059,0,0.12-0.006,0.178-0.006h30.864c12.853,0,23.272-10.42,23.272-23.272
			S430.216,465.449,417.363,465.449z M355.648,46.545l-34.482,123.144L286.684,46.545H355.648z M225.315,46.545l-34.48,123.144
			L156.351,46.545H225.315z M116.365,255.997c0-48.652,3.823-95.786,11.182-139.698l39.119,139.698l-39.119,139.7
			C120.188,351.785,116.365,304.65,116.365,255.997z M156.352,465.449l34.482-123.144l34.482,123.144H156.352z M256,402.413
			l-41-146.416l41-146.416l41,146.416L256,402.413z M286.684,465.449l34.482-123.144l34.482,123.144H286.684z M384.453,395.697
			l-39.119-139.7l39.119-139.698c7.359,43.912,11.182,91.046,11.182,139.698C395.635,304.65,391.812,351.785,384.453,395.697z"/>
	</g>
</g>
<g>
</g>
<g>
</g>
<g>
</g>
<g>
</g>
<g>
</g>
<g>
</g>
<g>
</g>
<g>
</g>
<g>
</g>
<g>
</g>
<g>
</g>
<g>
</g>
<g>
</g>
<g>
</g>
<g>
</g>
</svg>
