<?xml version="1.0" encoding="iso-8859-1"?>
<!-- Generator: Adobe Illustrator 19.0.0, SVG Export Plug-In . SVG Version: 6.00 Build 0)  -->
<svg version="1.1" id="Capa_1" xmlns="http://www.w3.org/2000/svg" xmlns:xlink="http://www.w3.org/1999/xlink" x="0px" y="0px"
	 viewBox="0 0 477.874 477.874" style="enable-background:new 0 0 477.874 477.874;" xml:space="preserve">
<g>
	<g>
		<path d="M165.835,287.93l-18.101,18.099c-3.325,3.338-3.325,8.736,0,12.075l12.067,12.067c3.324,3.334,8.722,3.343,12.056,0.019
			c0.006-0.006,0.013-0.013,0.019-0.019l18.098-18.102L165.835,287.93z"/>
	</g>
</g>
<g>
	<g>
		<path d="M220.142,269.829l-12.067-12.067c-3.336-3.322-8.73-3.322-12.067,0l-18.106,18.103l24.136,24.136l18.103-18.106
			C223.467,278.56,223.467,273.164,220.142,269.829z"/>
	</g>
</g>
<g>
	<g>
		<path d="M202.041,324.136l-18.098,18.101c-10.003,9.989-26.206,9.989-36.208,0l-12.067-12.067
			c-9.983-10.005-9.983-26.203,0-36.208l18.102-18.098l-17.243-17.243L42.394,381.713l53.798,53.798l123.093-94.132L202.041,324.136
			z"/>
	</g>
</g>
<g>
	<g>
		<path d="M442.101,35.804c-47.738-47.738-125.137-47.738-172.875,0c-47.738,47.738-47.738,125.137,0,172.875
			c47.738,47.738,125.137,47.738,172.875,0c0,0,0,0,0,0C489.759,160.907,489.759,83.575,442.101,35.804z M248.434,97.62
			c0.47-1.035,1.106-1.987,1.883-2.817c0.425-0.341,0.85-0.675,1.275-1.017c0.448-0.32,0.935-0.581,1.45-0.775
			c0.516-0.243,1.063-0.414,1.625-0.508c2.785-0.573,5.671,0.291,7.683,2.3c1.612,1.607,2.531,3.782,2.558,6.059
			c-0.01,2.282-0.931,4.466-2.558,6.066v0c-0.783,0.794-1.711,1.43-2.733,1.875c-1.031,0.408-2.133,0.609-3.242,0.592
			c-1.139,0.026-2.272-0.175-3.333-0.592c-1.001-0.478-1.921-1.111-2.725-1.875C247.932,104.457,247.198,100.825,248.434,97.62z
			 M262.351,155.137c-0.758,0.823-1.693,1.464-2.733,1.875c-1.024,0.441-2.126,0.674-3.242,0.683c-1.146,0-2.28-0.233-3.333-0.683
			c-1.038-0.412-1.97-1.053-2.725-1.875c-1.62-1.561-2.516-3.726-2.475-5.975c-0.018-1.109,0.183-2.211,0.592-3.242
			c0.427-1.059,1.068-2.018,1.883-2.817c0.404-0.367,0.83-0.709,1.275-1.025c0.466-0.312,0.95-0.596,1.45-0.85
			c0.531-0.18,1.074-0.321,1.625-0.425c2.785-0.573,5.671,0.291,7.683,2.3c1.612,1.607,2.531,3.782,2.558,6.059
			C264.9,151.418,263.977,153.574,262.351,155.137z M443.426,94.895c3.356-3.242,8.677-3.242,12.033,0
			c1.601,1.57,2.495,3.724,2.475,5.967c0.016,1.112-0.188,2.217-0.6,3.25c-0.443,1.048-1.079,2.003-1.875,2.817
			c-3.337,3.289-8.696,3.289-12.033,0c-0.825-0.789-1.466-1.751-1.875-2.817c-0.442-1.027-0.675-2.132-0.683-3.25
			C440.875,98.608,441.798,96.454,443.426,94.895z M417.4,73.47c1.89-4.358,6.955-6.359,11.314-4.47
			c0.964,0.418,1.844,1.009,2.595,1.745c0.82,0.758,1.46,1.689,1.875,2.725c1.379,3.19,0.632,6.901-1.875,9.308
			c-0.782,0.796-1.71,1.432-2.733,1.875c-4.352,1.795-9.336-0.278-11.131-4.631c-0.432-1.047-0.651-2.17-0.644-3.303
			C416.781,75.608,416.985,74.503,417.4,73.47z M419.275,118.953c3.389-3.158,8.644-3.158,12.033,0
			c1.612,1.607,2.531,3.782,2.558,6.059c-0.013,1.118-0.245,2.222-0.683,3.25l0,0c-0.415,1.036-1.055,1.967-1.875,2.725
			c-0.757,0.825-1.692,1.466-2.733,1.875c-1.024,0.441-2.126,0.674-3.242,0.683c-2.281-0.005-4.465-0.927-6.059-2.558
			c-1.62-1.561-2.516-3.726-2.475-5.975C416.793,122.745,417.683,120.567,419.275,118.953z M395.126,46.595
			c2.02-1.999,4.886-2.891,7.683-2.392c0.592,0.175,1.108,0.341,1.617,0.517c0.517,0.25,1.025,0.508,1.45,0.767
			c0.483,0.3,0.916,0.674,1.283,1.109c1.626,1.564,2.549,3.719,2.558,5.975c-0.012,2.28-0.933,4.46-2.558,6.059v0
			c-1.583,1.587-3.734,2.477-5.975,2.475c-1.137,0.015-2.265-0.189-3.325-0.6c-1.04-0.412-1.974-1.053-2.733-1.875
			c-1.606-1.605-2.498-3.789-2.475-6.059C392.626,50.324,393.52,48.165,395.126,46.595z M370.975,22.445
			c3.389-3.158,8.644-3.158,12.033,0c3.323,3.201,3.422,8.49,0.221,11.812c-0.072,0.075-0.146,0.149-0.221,0.221l0,0
			c-1.554,1.64-3.716,2.565-5.975,2.558c-4.732-0.032-8.547-3.885-8.533-8.617C368.495,26.178,369.386,24.027,370.975,22.445z
			 M296.734,49.329c0.412-1.042,1.056-1.977,1.883-2.733c1.995-2.035,4.877-2.933,7.675-2.392c0.517,0.175,1.108,0.341,1.625,0.517
			c0.508,0.25,0.933,0.508,1.45,0.767c0.445,0.345,0.871,0.715,1.275,1.108c0.798,0.781,1.438,1.709,1.883,2.733
			c1.237,3.202,0.502,6.831-1.883,9.3h0c-2.466,2.391-6.1,3.123-9.3,1.875c-1.038-0.413-1.969-1.053-2.725-1.875
			C296.105,56.228,295.353,52.517,296.734,49.329z M272.584,73.47c0.418-1.037,1.061-1.968,1.883-2.725
			c3.407-3.321,8.861-3.251,12.181,0.156c0.726,0.745,1.311,1.615,1.727,2.569c1.237,3.205,0.502,6.836-1.883,9.308
			c-2.466,2.391-6.1,3.123-9.3,1.875c-1.021-0.443-1.947-1.08-2.725-1.875C272.082,80.307,271.347,76.675,272.584,73.47z
			 M272.584,121.769c0.416-1.065,1.058-2.026,1.883-2.817c3.386-3.158,8.639-3.158,12.025,0c0.801,0.811,1.44,1.767,1.883,2.817
			c1.237,3.202,0.502,6.831-1.883,9.3v0.001c-1.625,1.576-3.795,2.462-6.059,2.475c-1.115-0.01-2.217-0.242-3.242-0.683
			c-1.019-0.41-1.945-1.019-2.725-1.792c-1.595-1.612-2.485-3.791-2.475-6.059C271.975,123.902,272.176,122.801,272.584,121.769z
			 M286.492,179.287c-3.195,3.321-8.477,3.422-11.798,0.227c-0.077-0.074-0.153-0.15-0.227-0.227
			c-0.824-0.759-1.468-1.693-1.883-2.733c-0.408-1.031-0.609-2.133-0.592-3.242c-0.01-1.135,0.19-2.263,0.592-3.325
			c0.415-1.041,1.059-1.975,1.883-2.733c3.37-3.2,8.655-3.2,12.025,0c0.801,0.779,1.441,1.708,1.883,2.733
			c0.402,1.062,0.602,2.19,0.592,3.325C288.974,175.554,288.083,177.706,286.492,179.287z M298.618,94.804
			c2.008-2.01,4.893-2.874,7.675-2.3c0.563,0.093,1.11,0.264,1.625,0.508c0.515,0.194,1.003,0.455,1.45,0.775
			c0.447,0.31,0.873,0.65,1.275,1.017c1.593,1.614,2.482,3.792,2.475,6.059c0.019,1.112-0.182,2.216-0.591,3.25v0
			c-0.469,1.036-1.105,1.988-1.883,2.817c-0.784,0.767-1.71,1.376-2.725,1.792c-1.045,0.475-2.185,0.706-3.333,0.675
			c-1.118,0.03-2.228-0.201-3.242-0.675c-3.191-1.309-5.279-4.41-5.292-7.858C296.078,98.584,297,96.408,298.618,94.804z
			 M296.734,145.92c0.413-1.066,1.056-2.028,1.883-2.817c2.008-2.01,4.893-2.874,7.675-2.3c0.563,0.093,1.11,0.264,1.625,0.508
			c0.515,0.191,1.002,0.449,1.45,0.767c0.445,0.316,0.871,0.658,1.275,1.025c0.753,0.849,1.386,1.797,1.883,2.817
			c0.408,1.031,0.609,2.133,0.592,3.242c0.011,2.268-0.88,4.447-2.475,6.059h0c-1.625,1.576-3.795,2.462-6.059,2.475
			c-1.115-0.01-2.217-0.242-3.242-0.683c-1.019-0.41-1.945-1.019-2.725-1.792C296.105,152.819,295.353,149.108,296.734,145.92z
			 M312.526,200.704c-0.446,1.024-1.085,1.952-1.883,2.733c-2.466,2.391-6.1,3.123-9.3,1.875c-1.038-0.413-1.969-1.053-2.725-1.875
			c-2.513-2.4-3.264-6.111-1.883-9.3c0.917-2.05,2.558-3.691,4.608-4.608c1.568-0.638,3.284-0.818,4.95-0.517
			c0.517,0.175,1.108,0.341,1.625,0.517c0.501,0.221,0.985,0.477,1.45,0.767c0.445,0.345,0.871,0.715,1.275,1.108
			c0.772,0.803,1.408,1.726,1.883,2.733c0.408,1.031,0.609,2.133,0.592,3.242C313.142,198.515,312.941,199.646,312.526,200.704z
			 M322.676,118.954c3.421-3.158,8.695-3.158,12.117,0c1.573,1.626,2.459,3.796,2.475,6.059c0.026,2.271-0.866,4.455-2.475,6.058
			c-3.365,3.327-8.789,3.297-12.117-0.068C319.375,127.665,319.375,122.292,322.676,118.954z M320.201,76.72
			c0.041-2.233,0.925-4.367,2.475-5.975c3.388-3.242,8.728-3.242,12.117,0c3.3,3.332,3.3,8.701,0,12.033v0
			c-2.466,2.391-6.1,3.123-9.3,1.875c-1.037-0.464-1.989-1.098-2.817-1.875C321.106,81.15,320.22,78.982,320.201,76.72z
			 M334.793,227.587L334.793,227.587c-3.366,3.3-8.753,3.3-12.117,0c-1.57-1.628-2.455-3.797-2.475-6.059
			c0.014-1.115,0.246-2.216,0.683-3.242c0.432-1.035,1.038-1.987,1.792-2.817c2.05-2.002,4.956-2.866,7.767-2.308
			c0.523,0.133,1.036,0.306,1.533,0.517c0.531,0.218,1.047,0.475,1.542,0.767l1.275,1.025c0.754,0.829,1.36,1.782,1.792,2.817
			C337.947,221.461,337.237,225.145,334.793,227.587z M334.792,179.287c-1.594,1.632-3.778,2.554-6.059,2.558
			c-1.115-0.01-2.217-0.242-3.242-0.683c-1.053-0.433-2.011-1.07-2.817-1.875c-1.554-1.605-2.439-3.741-2.475-5.975
			c0.014-1.142,0.246-2.27,0.683-3.325c0.413-1.02,1.022-1.948,1.792-2.733c3.421-3.158,8.695-3.158,12.117,0
			c0.77,0.785,1.379,1.714,1.792,2.733c0.442,1.053,0.674,2.183,0.683,3.325C337.274,175.554,336.383,177.706,334.792,179.287z
			 M334.792,34.479c-3.255,3.346-8.607,3.419-11.952,0.164c-0.055-0.054-0.11-0.109-0.164-0.164
			c-1.554-1.605-2.439-3.741-2.475-5.975c0.014-1.142,0.245-2.27,0.683-3.325c0.413-1.02,1.022-1.948,1.792-2.733
			c3.421-3.158,8.695-3.158,12.117,0c0.77,0.785,1.379,1.714,1.792,2.733c0.442,1.053,0.674,2.183,0.683,3.325
			C337.274,30.746,336.383,32.898,334.792,34.479z M346.825,143.102c0.797-0.815,1.757-1.454,2.817-1.875
			c1.575-0.614,3.293-0.761,4.95-0.425c0.521,0.103,1.034,0.245,1.533,0.425c1.007,0.516,1.952,1.146,2.817,1.875
			c1.573,1.626,2.459,3.796,2.475,6.059c0.027,2.271-0.866,4.456-2.474,6.059c-1.625,1.576-3.795,2.462-6.059,2.475
			c-1.115-0.01-2.217-0.242-3.242-0.683c-1.035-0.43-1.988-1.037-2.817-1.792c-1.592-1.614-2.481-3.792-2.475-6.059
			C344.386,146.902,345.269,144.74,346.825,143.102z M344.351,100.862c0.035-2.259,0.918-4.421,2.475-6.059
			c2.082-1.948,4.96-2.8,7.767-2.3c0.533,0.093,1.05,0.265,1.533,0.508c0.524,0.173,1.015,0.435,1.45,0.775
			c0.517,0.341,0.942,0.675,1.367,1.017c1.56,1.635,2.444,3.799,2.475,6.059c0.025,2.273-0.867,4.46-2.474,6.067
			c-1.606,1.603-3.79,2.492-6.059,2.467c-1.118,0.03-2.228-0.201-3.242-0.675c-1.032-0.437-1.984-1.042-2.817-1.792
			C345.221,105.319,344.33,103.134,344.351,100.862z M358.942,203.437c-2.466,2.391-6.1,3.123-9.3,1.875
			c-1.053-0.433-2.011-1.07-2.817-1.875c-1.587-1.583-2.477-3.734-2.475-5.975c0.002-2.265,0.89-4.44,2.475-6.059
			c0.775-0.842,1.741-1.485,2.817-1.875c1.566-0.644,3.285-0.823,4.95-0.517c0.508,0.175,1.025,0.341,1.533,0.517
			c0.517,0.258,1.025,0.508,1.45,0.767c0.493,0.321,0.951,0.692,1.367,1.108c1.588,1.617,2.477,3.793,2.475,6.059
			C361.424,199.704,360.532,201.856,358.942,203.437z M360.01,57.313c-0.311,0.473-0.669,0.913-1.067,1.315l0,0
			c-2.466,2.391-6.1,3.123-9.3,1.875c-1.053-0.433-2.011-1.07-2.817-1.875c-3.253-3.351-3.253-8.682,0-12.033
			c0.788-0.827,1.75-1.468,2.817-1.875c1.556-0.684,3.286-0.865,4.95-0.517c0.508,0.175,1.025,0.341,1.533,0.517
			c0.517,0.25,1.025,0.508,1.45,0.767C361.514,48.08,362.604,53.375,360.01,57.313z M383.009,227.587
			c-1.563,1.616-3.727,2.512-5.975,2.475c-4.667,0.045-8.488-3.702-8.533-8.369c0-0.055,0-0.109,0-0.164
			c-0.02-2.245,0.873-4.402,2.475-5.975c3.356-3.242,8.677-3.242,12.033,0c1.625,1.565,2.547,3.72,2.558,5.975
			C385.555,223.808,384.635,225.989,383.009,227.587z M384.884,176.554c-0.412,1.04-1.053,1.974-1.875,2.733
			c-1.552,1.643-3.715,2.569-5.975,2.558c-2.281-0.008-4.463-0.929-6.059-2.558c-0.796-0.782-1.432-1.71-1.875-2.733
			c-1.248-3.2-0.515-6.834,1.875-9.3c3.389-3.158,8.644-3.158,12.033,0C385.515,169.658,386.263,173.366,384.884,176.554
			L384.884,176.554z M383.009,131.07c-1.583,1.587-3.733,2.478-5.975,2.475c-2.263-0.015-4.432-0.902-6.059-2.475
			c-1.605-1.605-2.497-3.789-2.475-6.059c-0.004-2.266,0.885-4.443,2.475-6.059c3.389-3.158,8.644-3.158,12.033,0
			c1.612,1.607,2.531,3.782,2.558,6.059C385.559,127.292,384.637,129.474,383.009,131.07z M384.884,79.962L384.884,79.962
			c-0.412,1.064-1.052,2.025-1.875,2.817c-1.563,1.616-3.727,2.512-5.975,2.475c-2.269,0.019-4.452-0.872-6.059-2.475
			c-0.796-0.813-1.432-1.769-1.875-2.817c-0.418-1.029-0.623-2.132-0.6-3.242c-0.016-1.112,0.188-2.217,0.6-3.25
			c0.475-1.003,1.108-1.923,1.875-2.725c3.356-3.242,8.677-3.242,12.033,0c0.82,0.758,1.46,1.689,1.875,2.725
			C385.795,75.538,385.795,77.894,384.884,79.962z M395.126,94.803c2.035-1.97,4.901-2.828,7.683-2.3
			c0.563,0.081,1.109,0.252,1.617,0.508c0.524,0.173,1.015,0.435,1.45,0.775c0.461,0.295,0.891,0.636,1.283,1.017
			c1.612,1.607,2.53,3.782,2.558,6.059c-0.01,2.282-0.931,4.466-2.558,6.067c-3.31,3.323-8.686,3.334-12.009,0.024
			c-1.618-1.612-2.519-3.807-2.499-6.091C392.644,98.595,393.533,96.417,395.126,94.803z M395.126,143.103
			c2.012-2.009,4.898-2.873,7.683-2.3c0.551,0.092,1.092,0.234,1.617,0.425c0.512,0.232,0.998,0.516,1.45,0.85
			c0.497,0.244,0.935,0.594,1.283,1.025c1.626,1.598,2.547,3.779,2.558,6.059c0.007,2.259-0.919,4.421-2.558,5.975v0
			c-3.201,3.323-8.49,3.422-11.813,0.221c-0.075-0.072-0.149-0.146-0.221-0.221c-1.62-1.561-2.516-3.726-2.475-5.975
			C392.644,146.895,393.534,144.717,395.126,143.103z M407.159,203.437c-1.581,1.59-3.733,2.481-5.975,2.475
			c-1.137,0.015-2.265-0.189-3.325-0.6c-1.04-0.412-1.974-1.053-2.733-1.875c-1.59-1.581-2.481-3.733-2.475-5.975
			c-0.015-1.137,0.189-2.265,0.6-3.325c0.443-1.024,1.079-1.952,1.875-2.733c2.022-1.995,4.886-2.887,7.683-2.392
			c0.592,0.175,1.108,0.341,1.617,0.517c0.517,0.258,1.025,0.508,1.45,0.767c0.483,0.3,0.916,0.674,1.283,1.108
			c0.822,0.759,1.463,1.693,1.875,2.733c0.446,1.052,0.678,2.182,0.683,3.325C409.689,199.713,408.769,201.862,407.159,203.437z
			 M431.309,179.287c-0.759,0.822-1.693,1.463-2.733,1.875c-1.024,0.441-2.126,0.674-3.242,0.683
			c-2.281-0.005-4.465-0.927-6.059-2.558c-1.59-1.581-2.481-3.733-2.475-5.975c-0.012-1.136,0.192-2.264,0.6-3.325
			c0.443-1.024,1.079-1.952,1.875-2.733c3.373-3.2,8.66-3.2,12.033,0c0.822,0.759,1.463,1.693,1.875,2.733
			c0.43,1.057,0.661,2.184,0.683,3.325C433.838,175.564,432.918,177.712,431.309,179.287z M457.334,152.404
			c-0.443,1.024-1.079,1.952-1.875,2.733c-1.596,1.629-3.778,2.55-6.059,2.558c-2.257-0.006-4.414-0.929-5.975-2.558
			c-0.824-0.757-1.466-1.692-1.875-2.733c-0.911-2.065-0.911-4.418,0-6.483c0.41-1.066,1.051-2.028,1.876-2.817
			c2.009-2.009,4.893-2.873,7.675-2.3c0.551,0.101,1.095,0.243,1.625,0.425c0.501,0.252,0.985,0.536,1.45,0.85
			c0.446,0.318,0.875,0.66,1.283,1.025c0.796,0.813,1.432,1.769,1.875,2.817C458.134,148.007,458.134,150.317,457.334,152.404
			L457.334,152.404z"/>
	</g>
</g>
<g>
	<g>
		<path d="M31.935,395.388L6.292,428.92c-10.216,13.362-7.667,32.475,5.695,42.692c10.919,8.349,26.078,8.349,36.997,0
			l33.532-25.643L31.935,395.388z"/>
	</g>
</g>
<g>
	<g>
		<path d="M218.089,142.723l-77.022,96.306l0.633,0.633l24.136,24.136l18.106-18.103c10.002-9.983,26.198-9.983,36.2,0
			l12.067,12.067c9.983,10.002,9.983,26.198,0,36.2l-18.103,18.106l24.136,24.136l0.633,0.633l96.303-77.02
			C274.5,251.071,226.833,203.402,218.089,142.723z"/>
	</g>
</g>
<g>
</g>
<g>
</g>
<g>
</g>
<g>
</g>
<g>
</g>
<g>
</g>
<g>
</g>
<g>
</g>
<g>
</g>
<g>
</g>
<g>
</g>
<g>
</g>
<g>
</g>
<g>
</g>
<g>
</g>
</svg>
