<?xml version="1.0" standalone="no"?>
<!DOCTYPE svg PUBLIC "-//W3C//DTD SVG 20010904//EN"
 "http://www.w3.org/TR/2001/REC-SVG-20010904/DTD/svg10.dtd">
<svg version="1.0" xmlns="http://www.w3.org/2000/svg"
 width="728.000000pt" height="728.000000pt" viewBox="0 0 728.000000 728.000000"
 preserveAspectRatio="xMidYMid meet">
<metadata>
Created by potrace 1.14, written by Peter Selinger 2001-2017
</metadata>
<g transform="translate(0.000000,728.000000) scale(0.100000,-0.100000)"
fill="#000000" stroke="none">
<path d="M3118 4227 c-175 -61 -332 -176 -393 -289 -60 -108 -20 -266 54 -219
13 8 12 15 -4 50 -48 108 37 227 235 330 96 50 173 72 255 73 112 2 151 -45
148 -177 -2 -104 -31 -203 -140 -475 -48 -118 -94 -240 -103 -270 l-18 -55
-133 -26 c-161 -32 -180 -39 -209 -76 -29 -37 -22 -79 26 -152 44 -66 187
-217 226 -237 66 -34 79 -16 98 146 6 52 16 121 22 152 l10 57 107 36 c209 70
306 141 583 429 262 271 435 423 559 491 l46 25 -13 -71 c-15 -75 -34 -358
-34 -500 l0 -86 -88 -12 c-49 -6 -97 -11 -109 -11 -23 0 -53 -29 -53 -51 0 -8
34 -37 76 -64 74 -48 168 -140 202 -197 20 -34 56 -37 73 -7 8 15 8 42 0 102
-6 44 -11 106 -11 138 l0 58 70 21 c39 11 70 25 70 30 0 6 -34 10 -75 10 l-75
0 0 114 c0 147 16 347 37 444 23 113 22 126 -5 130 -29 4 -149 -52 -234 -109
-86 -58 -144 -107 -348 -299 -222 -208 -286 -264 -382 -333 -131 -93 -199
-127 -273 -134 -36 -3 -65 -3 -65 0 0 3 34 74 75 159 136 277 195 459 197 605
1 124 -27 195 -98 249 -33 26 -46 29 -123 32 -76 2 -97 -1 -183 -31z m1331
-970 l1 -39 -39 34 c-21 18 -39 38 -40 43 0 6 14 15 32 21 37 13 45 3 46 -59z
m-1461 -197 c9 -16 23 -20 61 -20 l48 0 -13 -67 c-7 -38 -16 -95 -19 -128 l-7
-60 -34 39 c-47 55 -139 235 -122 240 7 3 20 7 28 9 30 10 45 7 58 -13z"/>
<path d="M692 4077 c-46 -26 -112 -100 -138 -155 -15 -31 -33 -97 -42 -147 -8
-49 -22 -98 -31 -108 -14 -17 -14 -20 0 -30 12 -9 17 -39 22 -117 4 -58 16
-163 27 -234 11 -71 20 -130 20 -131 0 -1 -19 -5 -42 -9 -79 -12 -165 -46
-207 -82 -70 -61 -58 -88 92 -201 56 -43 127 -103 157 -135 64 -67 95 -74 137
-32 24 24 25 30 20 96 -3 38 -16 121 -28 185 -16 87 -19 117 -10 123 34 20
637 27 966 10 105 -5 308 -17 452 -27 l263 -17 25 24 c49 46 30 60 -76 60 -66
0 -69 1 -59 19 15 29 12 73 -8 101 -9 14 -46 53 -81 87 -49 47 -62 66 -57 80
4 10 10 40 13 66 l6 49 116 -7 c64 -3 171 -13 238 -21 146 -17 133 -17 133 0
0 20 -72 46 -159 58 -42 5 -268 12 -503 15 -236 3 -428 9 -428 13 0 5 14 50
31 100 37 112 36 154 -4 158 -16 2 -29 -2 -31 -10 -18 -58 -90 -246 -99 -257
-10 -11 -57 -13 -272 -7 -264 6 -329 12 -400 39 -42 16 -72 10 -89 -16 -19
-31 6 -51 80 -66 47 -9 163 -13 365 -15 l297 -1 -2 -105 c0 -58 3 -117 7 -131
8 -26 6 -28 -44 -44 -64 -22 -157 -22 -198 0 -17 8 -31 17 -31 20 0 2 14 26
30 52 54 84 34 163 -40 163 -57 0 -86 -15 -120 -61 -45 -62 -42 -111 9 -159
22 -21 61 -45 87 -54 60 -20 172 -21 270 0 72 14 77 14 106 -4 30 -19 29 -19
-349 -26 -208 -4 -399 -9 -424 -12 l-46 -6 -16 104 c-23 142 -37 264 -37 318
0 44 1 45 45 63 60 25 138 111 164 182 25 66 28 169 7 220 -13 31 -19 35 -53
35 -21 -1 -48 -6 -61 -13z m28 -62 c9 -10 11 -42 8 -102 -6 -123 -43 -192
-112 -209 l-29 -7 6 81 c7 87 33 174 67 222 24 33 41 38 60 15z m1182 -461
l67 -7 -20 -36 c-10 -20 -19 -52 -19 -73 0 -29 6 -41 32 -62 l32 -25 -37 -47
c-39 -50 -43 -59 -27 -69 12 -7 45 9 83 41 38 32 53 30 110 -11 50 -37 57 -54
32 -79 -14 -13 -20 -13 -56 0 -52 18 -64 18 -83 -2 -14 -13 -38 -14 -176 -8
-145 6 -157 8 -132 21 35 17 62 50 62 74 0 25 -7 24 -51 -7 -101 -70 -211 -38
-240 69 -11 43 -4 169 12 199 8 15 28 18 127 21 64 1 140 4 167 5 28 1 80 -1
117 -4z m-808 -171 c-13 -51 -34 -55 -34 -6 0 42 17 70 34 53 6 -6 6 -23 0
-47z m-507 -418 c12 -66 22 -126 23 -132 0 -15 -234 160 -255 190 -14 20 -13
22 7 30 42 16 143 36 173 34 l30 -2 22 -120z"/>
<path d="M5872 4073 c-10 -10 -41 -74 -67 -143 -26 -69 -81 -191 -122 -272
-158 -314 -285 -456 -382 -428 -72 20 -193 134 -351 330 -103 128 -179 210
-195 210 -20 0 -55 -40 -55 -63 0 -13 15 -38 34 -56 32 -31 33 -35 24 -69 -16
-55 6 -529 24 -548 12 -12 57 6 69 27 8 16 8 71 -1 213 -18 278 -22 270 80
146 46 -56 114 -129 150 -162 169 -156 265 -158 416 -8 83 82 160 197 257 385
l78 150 -6 -80 c-12 -161 28 -562 65 -659 12 -32 49 -35 75 -7 16 19 16 25 -4
128 -11 59 -26 149 -32 198 -13 113 -13 500 0 619 6 49 8 93 5 97 -9 15 -41
10 -62 -8z"/>
<path d="M1798 3939 c-113 -172 -106 -158 -84 -175 46 -34 93 -7 157 88 73
111 85 151 53 182 -32 33 -50 19 -126 -95z"/>
</g>
</svg>
